<?xml version="1.0" ?><svg data-name="Layer 45" height="24" id="Layer_45" viewBox="0 0 24 24" width="24" xmlns="http://www.w3.org/2000/svg"><title/><path d="M12,5a2,2,0,1,1-2,2,2.00227,2.00227,0,0,1,2-2m0-3a5,5,0,1,0,5,5,5,5,0,0,0-5-5Z" style="fill:#ffab66"/><path d="M12,16.25a9.39173,9.39173,0,0,1-4.83008-1.334,1.40038,1.40038,0,0,1,1.44141-2.40137,6.71562,6.71562,0,0,0,6.88281-.064,1.39994,1.39994,0,1,1,1.48438,2.374A9.37761,9.37761,0,0,1,12,16.25Z" style="fill:#ffab66"/><path d="M16,21.6001a1.396,1.396,0,0,1-.99023-.41016L12,18.18018,8.99023,21.18994a1.40006,1.40006,0,1,1-1.98047-1.97949L12,14.22021l4.99023,4.99023A1.3999,1.3999,0,0,1,16,21.6001Z" style="fill:#ffab66"/></svg>