<svg width="24px" height="24px" viewBox="0 0 24 24" xmlns="http://www.w3.org/2000/svg"><defs><style>.cls-1{fill:none;stroke:#000;stroke-linecap:round;stroke-linejoin:round;stroke-width:1.5px;}</style></defs><g id="ic-social-youtube"><path class="cls-1" d="M12,19.27a42.87,42.87,0,0,0,7.36-.45,2.67,2.67,0,0,0,1.82-1.46A13.57,13.57,0,0,0,22,12a13.57,13.57,0,0,0-.82-5.36,2.93,2.93,0,0,0-1.82-1.46A42.87,42.87,0,0,0,12,4.73a42.87,42.87,0,0,0-7.36.45A2.67,2.67,0,0,0,2.82,6.64,13.57,13.57,0,0,0,2,12a13.57,13.57,0,0,0,.82,5.36,2.93,2.93,0,0,0,1.82,1.46A42.87,42.87,0,0,0,12,19.27Z"/><path class="cls-1" d="M9.53,14.47V9.53A.6.6,0,0,1,10.44,9l4.12,2.48a.59.59,0,0,1,0,1L10.44,15A.6.6,0,0,1,9.53,14.47Z"/></g></svg>